<mxfile host="app.diagrams.net" modified="2021-10-04T01:49:48.430Z" agent="5.0 (Windows NT 10.0; Win64; x64) AppleWebKit/537.36 (KHTML, like Gecko) Chrome/94.0.4606.71 Safari/537.36" etag="76FpRVvpJZQ4iv66hIc6" version="15.4.1" type="github">
  <diagram id="Nj07bCPPSiQxX_Wcg0r5" name="Page-1">
    <mxGraphModel dx="1304" dy="567" grid="1" gridSize="10" guides="1" tooltips="1" connect="1" arrows="1" fold="1" page="1" pageScale="1" pageWidth="827" pageHeight="1169" math="0" shadow="0">
      <root>
        <mxCell id="0" />
        <mxCell id="1" parent="0" />
        <mxCell id="GFn40_tMTBPi8Aqq6Cur-9" style="edgeStyle=orthogonalEdgeStyle;rounded=0;orthogonalLoop=1;jettySize=auto;html=1;" edge="1" parent="1" source="CXU5azMome1cHcGIRZeV-1" target="iT-QjhbkleCrby-z9CVg-7">
          <mxGeometry relative="1" as="geometry">
            <Array as="points">
              <mxPoint x="480" y="216" />
              <mxPoint x="480" y="216" />
            </Array>
          </mxGeometry>
        </mxCell>
        <mxCell id="CXU5azMome1cHcGIRZeV-1" value="Crear o seleccionar cuenta" style="whiteSpace=wrap;html=1;aspect=fixed;fillColor=#D4E1F5;" parent="1" vertex="1">
          <mxGeometry x="385" y="183.25" width="70" height="70" as="geometry" />
        </mxCell>
        <mxCell id="CXU5azMome1cHcGIRZeV-2" value="Realizar medición" style="whiteSpace=wrap;html=1;aspect=fixed;fillColor=#D4E1F5;" parent="1" vertex="1">
          <mxGeometry x="513.5" y="311.75" width="66.5" height="66.5" as="geometry" />
        </mxCell>
        <mxCell id="iT-QjhbkleCrby-z9CVg-91" style="edgeStyle=orthogonalEdgeStyle;rounded=0;orthogonalLoop=1;jettySize=auto;html=1;exitX=0;exitY=0.75;exitDx=0;exitDy=0;entryX=0;entryY=0.5;entryDx=0;entryDy=0;" parent="1" source="iT-QjhbkleCrby-z9CVg-87" target="CXU5azMome1cHcGIRZeV-5" edge="1">
          <mxGeometry relative="1" as="geometry">
            <Array as="points">
              <mxPoint x="410" y="297" />
              <mxPoint x="410" y="895" />
            </Array>
          </mxGeometry>
        </mxCell>
        <mxCell id="CXU5azMome1cHcGIRZeV-5" value="Ajustes" style="whiteSpace=wrap;html=1;aspect=fixed;fillColor=#D4E1F5;" parent="1" vertex="1">
          <mxGeometry x="1060" y="860" width="70" height="70" as="geometry" />
        </mxCell>
        <mxCell id="CXU5azMome1cHcGIRZeV-7" value="Mostrar colocación de electrodos" style="whiteSpace=wrap;html=1;aspect=fixed;fillColor=#D4E1F5;" parent="1" vertex="1">
          <mxGeometry x="850" y="650" width="70" height="70" as="geometry" />
        </mxCell>
        <mxCell id="CXU5azMome1cHcGIRZeV-8" value="Detectar Errores" style="whiteSpace=wrap;html=1;aspect=fixed;fillColor=#D4E1F5;" parent="1" vertex="1">
          <mxGeometry x="920" y="720" width="70" height="70" as="geometry" />
        </mxCell>
        <mxCell id="iT-QjhbkleCrby-z9CVg-37" style="edgeStyle=orthogonalEdgeStyle;rounded=0;orthogonalLoop=1;jettySize=auto;html=1;exitX=0;exitY=0.75;exitDx=0;exitDy=0;entryX=1;entryY=0.5;entryDx=0;entryDy=0;" parent="1" source="CXU5azMome1cHcGIRZeV-9" target="iT-QjhbkleCrby-z9CVg-35" edge="1">
          <mxGeometry relative="1" as="geometry" />
        </mxCell>
        <mxCell id="iT-QjhbkleCrby-z9CVg-70" style="edgeStyle=orthogonalEdgeStyle;rounded=0;orthogonalLoop=1;jettySize=auto;html=1;exitX=0.5;exitY=1;exitDx=0;exitDy=0;entryX=0;entryY=0.5;entryDx=0;entryDy=0;" parent="1" source="CXU5azMome1cHcGIRZeV-9" target="iT-QjhbkleCrby-z9CVg-68" edge="1">
          <mxGeometry relative="1" as="geometry">
            <Array as="points">
              <mxPoint x="670" y="518" />
              <mxPoint x="670" y="1035" />
            </Array>
          </mxGeometry>
        </mxCell>
        <mxCell id="CXU5azMome1cHcGIRZeV-9" value="Almacenar datos en la nube" style="whiteSpace=wrap;html=1;aspect=fixed;fillColor=#D4E1F5;" parent="1" vertex="1">
          <mxGeometry x="650" y="448.25" width="70" height="70" as="geometry" />
        </mxCell>
        <mxCell id="iT-QjhbkleCrby-z9CVg-61" style="edgeStyle=orthogonalEdgeStyle;rounded=0;orthogonalLoop=1;jettySize=auto;html=1;entryX=1;entryY=0.5;entryDx=0;entryDy=0;" parent="1" source="CXU5azMome1cHcGIRZeV-10" target="iT-QjhbkleCrby-z9CVg-60" edge="1">
          <mxGeometry relative="1" as="geometry">
            <Array as="points">
              <mxPoint x="970" y="805" />
              <mxPoint x="970" y="805" />
            </Array>
          </mxGeometry>
        </mxCell>
        <mxCell id="iT-QjhbkleCrby-z9CVg-94" style="edgeStyle=orthogonalEdgeStyle;rounded=0;orthogonalLoop=1;jettySize=auto;html=1;exitX=0;exitY=0.75;exitDx=0;exitDy=0;entryX=1;entryY=0.5;entryDx=0;entryDy=0;" parent="1" source="CXU5azMome1cHcGIRZeV-10" target="iT-QjhbkleCrby-z9CVg-93" edge="1">
          <mxGeometry relative="1" as="geometry">
            <Array as="points">
              <mxPoint x="990" y="848" />
              <mxPoint x="940" y="848" />
            </Array>
          </mxGeometry>
        </mxCell>
        <mxCell id="CXU5azMome1cHcGIRZeV-10" value="Mostrar anomalías" style="whiteSpace=wrap;html=1;aspect=fixed;fillColor=#D4E1F5;" parent="1" vertex="1">
          <mxGeometry x="990" y="790" width="70" height="70" as="geometry" />
        </mxCell>
        <mxCell id="iT-QjhbkleCrby-z9CVg-73" style="edgeStyle=orthogonalEdgeStyle;rounded=0;orthogonalLoop=1;jettySize=auto;html=1;" parent="1" source="CXU5azMome1cHcGIRZeV-11" target="iT-QjhbkleCrby-z9CVg-71" edge="1">
          <mxGeometry relative="1" as="geometry" />
        </mxCell>
        <mxCell id="CXU5azMome1cHcGIRZeV-11" value="Consejos" style="whiteSpace=wrap;html=1;aspect=fixed;fillColor=#D4E1F5;" parent="1" vertex="1">
          <mxGeometry x="1130" y="930" width="70" height="70" as="geometry" />
        </mxCell>
        <mxCell id="CXU5azMome1cHcGIRZeV-12" value="Recordatorios" style="whiteSpace=wrap;html=1;aspect=fixed;fillColor=#D4E1F5;" parent="1" vertex="1">
          <mxGeometry x="1200" y="1000" width="70" height="70" as="geometry" />
        </mxCell>
        <mxCell id="iT-QjhbkleCrby-z9CVg-76" style="edgeStyle=orthogonalEdgeStyle;rounded=0;orthogonalLoop=1;jettySize=auto;html=1;entryX=1;entryY=0.5;entryDx=0;entryDy=0;" parent="1" source="CXU5azMome1cHcGIRZeV-13" target="iT-QjhbkleCrby-z9CVg-74" edge="1">
          <mxGeometry relative="1" as="geometry" />
        </mxCell>
        <mxCell id="CXU5azMome1cHcGIRZeV-13" value="Preguntas frecuentes" style="whiteSpace=wrap;html=1;aspect=fixed;fillColor=#D4E1F5;" parent="1" vertex="1">
          <mxGeometry x="1270" y="1070" width="70" height="70" as="geometry" />
        </mxCell>
        <mxCell id="GFn40_tMTBPi8Aqq6Cur-4" style="edgeStyle=orthogonalEdgeStyle;rounded=0;orthogonalLoop=1;jettySize=auto;html=1;entryX=0;entryY=0.5;entryDx=0;entryDy=0;" edge="1" parent="1" source="iT-QjhbkleCrby-z9CVg-3" target="iT-QjhbkleCrby-z9CVg-83">
          <mxGeometry relative="1" as="geometry" />
        </mxCell>
        <mxCell id="GFn40_tMTBPi8Aqq6Cur-27" style="edgeStyle=orthogonalEdgeStyle;rounded=0;orthogonalLoop=1;jettySize=auto;html=1;exitX=0.5;exitY=1;exitDx=0;exitDy=0;entryX=0.645;entryY=0.005;entryDx=0;entryDy=0;entryPerimeter=0;" edge="1" parent="1" source="iT-QjhbkleCrby-z9CVg-3" target="CXU5azMome1cHcGIRZeV-1">
          <mxGeometry relative="1" as="geometry">
            <Array as="points">
              <mxPoint x="470" y="104" />
              <mxPoint x="470" y="144" />
              <mxPoint x="430" y="144" />
            </Array>
          </mxGeometry>
        </mxCell>
        <mxCell id="iT-QjhbkleCrby-z9CVg-3" value="Usuario y contraseña" style="rounded=1;whiteSpace=wrap;html=1;" parent="1" vertex="1">
          <mxGeometry x="400" y="74.25" width="160" height="30" as="geometry" />
        </mxCell>
        <mxCell id="iT-QjhbkleCrby-z9CVg-5" value="Funciones del sistema" style="whiteSpace=wrap;html=1;aspect=fixed;fillColor=#D4E1F5;" parent="1" vertex="1">
          <mxGeometry x="420" y="1072.5" width="70" height="70" as="geometry" />
        </mxCell>
        <mxCell id="iT-QjhbkleCrby-z9CVg-6" value="Datos/variables entre funciones" style="rounded=1;whiteSpace=wrap;html=1;" parent="1" vertex="1">
          <mxGeometry x="380" y="1030" width="160" height="30" as="geometry" />
        </mxCell>
        <mxCell id="iT-QjhbkleCrby-z9CVg-40" style="edgeStyle=orthogonalEdgeStyle;rounded=0;orthogonalLoop=1;jettySize=auto;html=1;entryX=0;entryY=0.5;entryDx=0;entryDy=0;" parent="1" source="iT-QjhbkleCrby-z9CVg-7" target="iT-QjhbkleCrby-z9CVg-39" edge="1">
          <mxGeometry relative="1" as="geometry" />
        </mxCell>
        <mxCell id="GFn40_tMTBPi8Aqq6Cur-10" style="edgeStyle=orthogonalEdgeStyle;rounded=0;orthogonalLoop=1;jettySize=auto;html=1;entryX=0.5;entryY=0;entryDx=0;entryDy=0;" edge="1" parent="1" source="iT-QjhbkleCrby-z9CVg-7" target="CXU5azMome1cHcGIRZeV-2">
          <mxGeometry relative="1" as="geometry" />
        </mxCell>
        <mxCell id="iT-QjhbkleCrby-z9CVg-7" value="Selección de medición" style="rounded=1;whiteSpace=wrap;html=1;" parent="1" vertex="1">
          <mxGeometry x="520" y="200" width="100" height="31" as="geometry" />
        </mxCell>
        <mxCell id="GFn40_tMTBPi8Aqq6Cur-12" style="edgeStyle=orthogonalEdgeStyle;rounded=0;orthogonalLoop=1;jettySize=auto;html=1;entryX=0.5;entryY=0;entryDx=0;entryDy=0;" edge="1" parent="1" source="iT-QjhbkleCrby-z9CVg-15" target="GFn40_tMTBPi8Aqq6Cur-2">
          <mxGeometry relative="1" as="geometry">
            <Array as="points">
              <mxPoint x="750" y="360" />
            </Array>
          </mxGeometry>
        </mxCell>
        <mxCell id="GFn40_tMTBPi8Aqq6Cur-25" style="edgeStyle=orthogonalEdgeStyle;rounded=0;orthogonalLoop=1;jettySize=auto;html=1;entryX=0;entryY=0.5;entryDx=0;entryDy=0;" edge="1" parent="1" source="iT-QjhbkleCrby-z9CVg-15" target="iT-QjhbkleCrby-z9CVg-62">
          <mxGeometry relative="1" as="geometry" />
        </mxCell>
        <mxCell id="iT-QjhbkleCrby-z9CVg-15" value="Resultado de medición" style="rounded=1;whiteSpace=wrap;html=1;" parent="1" vertex="1">
          <mxGeometry x="580" y="323.75" width="70" height="50.5" as="geometry" />
        </mxCell>
        <mxCell id="iT-QjhbkleCrby-z9CVg-66" style="edgeStyle=orthogonalEdgeStyle;rounded=0;orthogonalLoop=1;jettySize=auto;html=1;" parent="1" source="iT-QjhbkleCrby-z9CVg-19" target="iT-QjhbkleCrby-z9CVg-65" edge="1">
          <mxGeometry relative="1" as="geometry" />
        </mxCell>
        <mxCell id="iT-QjhbkleCrby-z9CVg-25" style="edgeStyle=orthogonalEdgeStyle;rounded=0;orthogonalLoop=1;jettySize=auto;html=1;exitX=1;exitY=0.25;exitDx=0;exitDy=0;entryX=0;entryY=0.5;entryDx=0;entryDy=0;" parent="1" source="CXU5azMome1cHcGIRZeV-6" target="iT-QjhbkleCrby-z9CVg-19" edge="1">
          <mxGeometry relative="1" as="geometry" />
        </mxCell>
        <mxCell id="iT-QjhbkleCrby-z9CVg-34" style="edgeStyle=orthogonalEdgeStyle;rounded=0;orthogonalLoop=1;jettySize=auto;html=1;entryX=0;entryY=0.5;entryDx=0;entryDy=0;" parent="1" target="iT-QjhbkleCrby-z9CVg-26" edge="1">
          <mxGeometry relative="1" as="geometry">
            <Array as="points">
              <mxPoint x="440" y="400" />
              <mxPoint x="440" y="476" />
            </Array>
            <mxPoint x="580" y="400" as="sourcePoint" />
          </mxGeometry>
        </mxCell>
        <mxCell id="CXU5azMome1cHcGIRZeV-6" value="Mostrar Resultados" style="whiteSpace=wrap;html=1;aspect=fixed;fillColor=#D4E1F5;" parent="1" vertex="1">
          <mxGeometry x="580" y="378.25" width="70" height="70" as="geometry" />
        </mxCell>
        <mxCell id="iT-QjhbkleCrby-z9CVg-33" style="edgeStyle=orthogonalEdgeStyle;rounded=0;orthogonalLoop=1;jettySize=auto;html=1;exitX=1;exitY=0.5;exitDx=0;exitDy=0;" parent="1" source="iT-QjhbkleCrby-z9CVg-26" target="CXU5azMome1cHcGIRZeV-9" edge="1">
          <mxGeometry relative="1" as="geometry">
            <Array as="points">
              <mxPoint x="620" y="476" />
              <mxPoint x="620" y="476" />
            </Array>
          </mxGeometry>
        </mxCell>
        <mxCell id="iT-QjhbkleCrby-z9CVg-26" value="Datos de medición para guardar" style="rounded=1;whiteSpace=wrap;html=1;" parent="1" vertex="1">
          <mxGeometry x="460" y="460" width="108" height="31" as="geometry" />
        </mxCell>
        <mxCell id="iT-QjhbkleCrby-z9CVg-38" style="edgeStyle=orthogonalEdgeStyle;rounded=0;orthogonalLoop=1;jettySize=auto;html=1;entryX=0;entryY=0.407;entryDx=0;entryDy=0;entryPerimeter=0;" parent="1" source="iT-QjhbkleCrby-z9CVg-35" target="CXU5azMome1cHcGIRZeV-4" edge="1">
          <mxGeometry relative="1" as="geometry">
            <mxPoint x="480" y="440" as="targetPoint" />
            <Array as="points">
              <mxPoint x="520" y="608" />
            </Array>
          </mxGeometry>
        </mxCell>
        <mxCell id="iT-QjhbkleCrby-z9CVg-35" value="Datos de medición guardados de usuario" style="rounded=1;whiteSpace=wrap;html=1;" parent="1" vertex="1">
          <mxGeometry x="448" y="519.5" width="120" height="31" as="geometry" />
        </mxCell>
        <mxCell id="GFn40_tMTBPi8Aqq6Cur-21" style="edgeStyle=orthogonalEdgeStyle;rounded=0;orthogonalLoop=1;jettySize=auto;html=1;entryX=0.75;entryY=0;entryDx=0;entryDy=0;" edge="1" parent="1" source="iT-QjhbkleCrby-z9CVg-39" target="CXU5azMome1cHcGIRZeV-7">
          <mxGeometry relative="1" as="geometry">
            <Array as="points">
              <mxPoint x="903" y="600" />
            </Array>
          </mxGeometry>
        </mxCell>
        <mxCell id="iT-QjhbkleCrby-z9CVg-39" value="Mostrar en pantalla indicaciones" style="rounded=1;whiteSpace=wrap;html=1;" parent="1" vertex="1">
          <mxGeometry x="841" y="193.25" width="99" height="44.75" as="geometry" />
        </mxCell>
        <mxCell id="iT-QjhbkleCrby-z9CVg-46" value="señal de electrodos" style="rounded=1;whiteSpace=wrap;html=1;" parent="1" vertex="1">
          <mxGeometry x="921" y="668.5" width="70" height="47.5" as="geometry" />
        </mxCell>
        <mxCell id="iT-QjhbkleCrby-z9CVg-48" value="señal sensor temperatura" style="rounded=1;whiteSpace=wrap;html=1;" parent="1" vertex="1">
          <mxGeometry x="990" y="735" width="78.5" height="50" as="geometry" />
        </mxCell>
        <mxCell id="iT-QjhbkleCrby-z9CVg-56" style="edgeStyle=orthogonalEdgeStyle;rounded=0;orthogonalLoop=1;jettySize=auto;html=1;entryX=0.681;entryY=-0.046;entryDx=0;entryDy=0;entryPerimeter=0;" parent="1" source="iT-QjhbkleCrby-z9CVg-55" target="CXU5azMome1cHcGIRZeV-5" edge="1">
          <mxGeometry relative="1" as="geometry">
            <Array as="points">
              <mxPoint x="1108" y="770" />
              <mxPoint x="1108" y="770" />
            </Array>
          </mxGeometry>
        </mxCell>
        <mxCell id="iT-QjhbkleCrby-z9CVg-55" value="Fecha, Hora, Datos usuario," style="rounded=1;whiteSpace=wrap;html=1;" parent="1" vertex="1">
          <mxGeometry x="1060" y="649.5" width="90" height="35" as="geometry" />
        </mxCell>
        <mxCell id="iT-QjhbkleCrby-z9CVg-82" style="edgeStyle=orthogonalEdgeStyle;rounded=0;orthogonalLoop=1;jettySize=auto;html=1;entryX=0.5;entryY=1;entryDx=0;entryDy=0;" parent="1" source="iT-QjhbkleCrby-z9CVg-60" target="iT-QjhbkleCrby-z9CVg-79" edge="1">
          <mxGeometry relative="1" as="geometry" />
        </mxCell>
        <mxCell id="iT-QjhbkleCrby-z9CVg-60" value="Apagado emergencia" style="rounded=1;whiteSpace=wrap;html=1;" parent="1" vertex="1">
          <mxGeometry x="786" y="787.5" width="104" height="35" as="geometry" />
        </mxCell>
        <mxCell id="iT-QjhbkleCrby-z9CVg-64" style="edgeStyle=orthogonalEdgeStyle;rounded=0;orthogonalLoop=1;jettySize=auto;html=1;entryX=0.5;entryY=0;entryDx=0;entryDy=0;" parent="1" source="iT-QjhbkleCrby-z9CVg-62" target="CXU5azMome1cHcGIRZeV-11" edge="1">
          <mxGeometry relative="1" as="geometry">
            <Array as="points">
              <mxPoint x="1165" y="570" />
              <mxPoint x="1165" y="570" />
            </Array>
          </mxGeometry>
        </mxCell>
        <mxCell id="iT-QjhbkleCrby-z9CVg-62" value="Resultados medición" style="rounded=1;whiteSpace=wrap;html=1;" parent="1" vertex="1">
          <mxGeometry x="1120" y="334" width="80" height="30" as="geometry" />
        </mxCell>
        <mxCell id="iT-QjhbkleCrby-z9CVg-67" style="edgeStyle=orthogonalEdgeStyle;rounded=0;orthogonalLoop=1;jettySize=auto;html=1;entryX=0.619;entryY=0.045;entryDx=0;entryDy=0;entryPerimeter=0;" parent="1" source="iT-QjhbkleCrby-z9CVg-65" target="CXU5azMome1cHcGIRZeV-12" edge="1">
          <mxGeometry relative="1" as="geometry">
            <Array as="points">
              <mxPoint x="1243" y="560" />
              <mxPoint x="1243" y="560" />
            </Array>
          </mxGeometry>
        </mxCell>
        <mxCell id="iT-QjhbkleCrby-z9CVg-65" value="Datos medición de usuario" style="rounded=1;whiteSpace=wrap;html=1;" parent="1" vertex="1">
          <mxGeometry x="1214" y="377.75" width="90" height="35" as="geometry" />
        </mxCell>
        <mxCell id="iT-QjhbkleCrby-z9CVg-69" style="edgeStyle=orthogonalEdgeStyle;rounded=0;orthogonalLoop=1;jettySize=auto;html=1;exitX=1;exitY=0.5;exitDx=0;exitDy=0;entryX=0;entryY=0.5;entryDx=0;entryDy=0;" parent="1" source="iT-QjhbkleCrby-z9CVg-68" target="CXU5azMome1cHcGIRZeV-12" edge="1">
          <mxGeometry relative="1" as="geometry" />
        </mxCell>
        <mxCell id="iT-QjhbkleCrby-z9CVg-68" value="Datos e historial usuario" style="rounded=1;whiteSpace=wrap;html=1;" parent="1" vertex="1">
          <mxGeometry x="901" y="1017.5" width="90" height="35" as="geometry" />
        </mxCell>
        <mxCell id="iT-QjhbkleCrby-z9CVg-71" value="Mensaje en pantalla con consejo" style="rounded=1;whiteSpace=wrap;html=1;" parent="1" vertex="1">
          <mxGeometry x="870" y="947.5" width="115" height="35" as="geometry" />
        </mxCell>
        <mxCell id="iT-QjhbkleCrby-z9CVg-74" value="Chatbot, manual" style="rounded=1;whiteSpace=wrap;html=1;" parent="1" vertex="1">
          <mxGeometry x="1027.5" y="1087.5" width="115" height="35" as="geometry" />
        </mxCell>
        <mxCell id="iT-QjhbkleCrby-z9CVg-78" style="edgeStyle=orthogonalEdgeStyle;rounded=0;orthogonalLoop=1;jettySize=auto;html=1;exitX=0.5;exitY=1;exitDx=0;exitDy=0;entryX=0.75;entryY=0;entryDx=0;entryDy=0;" parent="1" source="iT-QjhbkleCrby-z9CVg-77" target="CXU5azMome1cHcGIRZeV-13" edge="1">
          <mxGeometry relative="1" as="geometry" />
        </mxCell>
        <mxCell id="iT-QjhbkleCrby-z9CVg-77" value="Recolectar información" style="rounded=1;whiteSpace=wrap;html=1;" parent="1" vertex="1">
          <mxGeometry x="1278" y="920" width="90" height="35" as="geometry" />
        </mxCell>
        <mxCell id="iT-QjhbkleCrby-z9CVg-79" value="Encendido/&lt;br&gt;apagado" style="whiteSpace=wrap;html=1;aspect=fixed;fillColor=#D4E1F5;" parent="1" vertex="1">
          <mxGeometry x="250" y="48.25" width="71" height="71" as="geometry" />
        </mxCell>
        <mxCell id="iT-QjhbkleCrby-z9CVg-81" style="edgeStyle=orthogonalEdgeStyle;rounded=0;orthogonalLoop=1;jettySize=auto;html=1;entryX=0.5;entryY=0;entryDx=0;entryDy=0;" parent="1" source="iT-QjhbkleCrby-z9CVg-80" target="iT-QjhbkleCrby-z9CVg-79" edge="1">
          <mxGeometry relative="1" as="geometry">
            <Array as="points">
              <mxPoint x="285" y="20" />
            </Array>
          </mxGeometry>
        </mxCell>
        <mxCell id="iT-QjhbkleCrby-z9CVg-96" style="edgeStyle=orthogonalEdgeStyle;rounded=0;orthogonalLoop=1;jettySize=auto;html=1;entryX=0;entryY=0.5;entryDx=0;entryDy=0;" parent="1" source="iT-QjhbkleCrby-z9CVg-80" target="iT-QjhbkleCrby-z9CVg-95" edge="1">
          <mxGeometry relative="1" as="geometry" />
        </mxCell>
        <mxCell id="iT-QjhbkleCrby-z9CVg-80" value="Botón encendido" style="rounded=1;whiteSpace=wrap;html=1;" parent="1" vertex="1">
          <mxGeometry x="340" y="10" width="100" height="30" as="geometry" />
        </mxCell>
        <mxCell id="iT-QjhbkleCrby-z9CVg-100" style="edgeStyle=orthogonalEdgeStyle;rounded=0;orthogonalLoop=1;jettySize=auto;html=1;exitX=1;exitY=0.5;exitDx=0;exitDy=0;entryX=0;entryY=0.5;entryDx=0;entryDy=0;" parent="1" source="iT-QjhbkleCrby-z9CVg-83" target="iT-QjhbkleCrby-z9CVg-98" edge="1">
          <mxGeometry relative="1" as="geometry" />
        </mxCell>
        <mxCell id="GFn40_tMTBPi8Aqq6Cur-11" style="edgeStyle=orthogonalEdgeStyle;rounded=0;orthogonalLoop=1;jettySize=auto;html=1;entryX=0.5;entryY=0;entryDx=0;entryDy=0;" edge="1" parent="1" source="iT-QjhbkleCrby-z9CVg-83" target="CXU5azMome1cHcGIRZeV-9">
          <mxGeometry relative="1" as="geometry">
            <Array as="points">
              <mxPoint x="685" y="190" />
              <mxPoint x="685" y="190" />
            </Array>
          </mxGeometry>
        </mxCell>
        <mxCell id="iT-QjhbkleCrby-z9CVg-83" value="Sincronización con la nube" style="rounded=1;whiteSpace=wrap;html=1;" parent="1" vertex="1">
          <mxGeometry x="627" y="69" width="95" height="40.5" as="geometry" />
        </mxCell>
        <mxCell id="iT-QjhbkleCrby-z9CVg-90" style="edgeStyle=orthogonalEdgeStyle;rounded=0;orthogonalLoop=1;jettySize=auto;html=1;entryX=0;entryY=0.5;entryDx=0;entryDy=0;" parent="1" source="iT-QjhbkleCrby-z9CVg-87" target="CXU5azMome1cHcGIRZeV-2" edge="1">
          <mxGeometry relative="1" as="geometry">
            <Array as="points">
              <mxPoint x="430" y="283" />
              <mxPoint x="430" y="345" />
            </Array>
          </mxGeometry>
        </mxCell>
        <mxCell id="iT-QjhbkleCrby-z9CVg-92" style="edgeStyle=orthogonalEdgeStyle;rounded=0;orthogonalLoop=1;jettySize=auto;html=1;exitX=0;exitY=0.25;exitDx=0;exitDy=0;entryX=0;entryY=0.75;entryDx=0;entryDy=0;" parent="1" source="iT-QjhbkleCrby-z9CVg-87" target="CXU5azMome1cHcGIRZeV-4" edge="1">
          <mxGeometry relative="1" as="geometry">
            <Array as="points">
              <mxPoint x="360" y="268" />
              <mxPoint x="360" y="632" />
            </Array>
          </mxGeometry>
        </mxCell>
        <mxCell id="iT-QjhbkleCrby-z9CVg-87" value="Menú" style="whiteSpace=wrap;html=1;aspect=fixed;fillColor=#D4E1F5;" parent="1" vertex="1">
          <mxGeometry x="455" y="253.25" width="58.5" height="58.5" as="geometry" />
        </mxCell>
        <mxCell id="GFn40_tMTBPi8Aqq6Cur-26" value="" style="edgeStyle=orthogonalEdgeStyle;rounded=0;orthogonalLoop=1;jettySize=auto;html=1;" edge="1" parent="1" source="iT-QjhbkleCrby-z9CVg-88" target="CXU5azMome1cHcGIRZeV-1">
          <mxGeometry relative="1" as="geometry">
            <Array as="points">
              <mxPoint x="410" y="151" />
            </Array>
          </mxGeometry>
        </mxCell>
        <mxCell id="iT-QjhbkleCrby-z9CVg-88" value="Conectarse Wifi" style="whiteSpace=wrap;html=1;aspect=fixed;fillColor=#D4E1F5;" parent="1" vertex="1">
          <mxGeometry x="321" y="119.25" width="64" height="64" as="geometry" />
        </mxCell>
        <mxCell id="iT-QjhbkleCrby-z9CVg-103" style="edgeStyle=orthogonalEdgeStyle;rounded=0;orthogonalLoop=1;jettySize=auto;html=1;entryX=0;entryY=0.5;entryDx=0;entryDy=0;" parent="1" source="iT-QjhbkleCrby-z9CVg-93" target="CXU5azMome1cHcGIRZeV-8" edge="1">
          <mxGeometry relative="1" as="geometry">
            <Array as="points">
              <mxPoint x="750" y="848" />
              <mxPoint x="750" y="755" />
            </Array>
          </mxGeometry>
        </mxCell>
        <mxCell id="iT-QjhbkleCrby-z9CVg-93" value="Mensaje batería baja" style="rounded=1;whiteSpace=wrap;html=1;" parent="1" vertex="1">
          <mxGeometry x="786" y="830" width="104" height="35" as="geometry" />
        </mxCell>
        <mxCell id="iT-QjhbkleCrby-z9CVg-97" style="edgeStyle=orthogonalEdgeStyle;rounded=0;orthogonalLoop=1;jettySize=auto;html=1;entryX=0.5;entryY=0;entryDx=0;entryDy=0;" parent="1" source="iT-QjhbkleCrby-z9CVg-95" target="iT-QjhbkleCrby-z9CVg-88" edge="1">
          <mxGeometry relative="1" as="geometry">
            <Array as="points">
              <mxPoint x="530" y="60" />
              <mxPoint x="354" y="60" />
            </Array>
          </mxGeometry>
        </mxCell>
        <mxCell id="iT-QjhbkleCrby-z9CVg-95" value="encendido de dispositivo" style="rounded=1;whiteSpace=wrap;html=1;" parent="1" vertex="1">
          <mxGeometry x="490" y="5" width="90" height="40" as="geometry" />
        </mxCell>
        <mxCell id="iT-QjhbkleCrby-z9CVg-99" style="edgeStyle=orthogonalEdgeStyle;rounded=0;orthogonalLoop=1;jettySize=auto;html=1;entryX=0.5;entryY=0;entryDx=0;entryDy=0;" parent="1" source="iT-QjhbkleCrby-z9CVg-98" target="iT-QjhbkleCrby-z9CVg-87" edge="1">
          <mxGeometry relative="1" as="geometry">
            <Array as="points">
              <mxPoint x="843" y="150" />
              <mxPoint x="484" y="150" />
            </Array>
          </mxGeometry>
        </mxCell>
        <mxCell id="iT-QjhbkleCrby-z9CVg-98" value="Mostrar Opciones menú" style="rounded=1;whiteSpace=wrap;html=1;" parent="1" vertex="1">
          <mxGeometry x="795" y="69" width="95" height="40.5" as="geometry" />
        </mxCell>
        <mxCell id="CXU5azMome1cHcGIRZeV-4" value="Historial" style="whiteSpace=wrap;html=1;aspect=fixed;fillColor=#D4E1F5;" parent="1" vertex="1">
          <mxGeometry x="780" y="579.5" width="70" height="70" as="geometry" />
        </mxCell>
        <mxCell id="GFn40_tMTBPi8Aqq6Cur-2" value="Almacenar datos localmente" style="whiteSpace=wrap;html=1;aspect=fixed;fillColor=#D4E1F5;" vertex="1" parent="1">
          <mxGeometry x="720" y="519.5" width="60" height="60" as="geometry" />
        </mxCell>
        <mxCell id="GFn40_tMTBPi8Aqq6Cur-22" style="edgeStyle=orthogonalEdgeStyle;rounded=0;orthogonalLoop=1;jettySize=auto;html=1;" edge="1" parent="1" source="iT-QjhbkleCrby-z9CVg-19" target="CXU5azMome1cHcGIRZeV-4">
          <mxGeometry relative="1" as="geometry">
            <Array as="points">
              <mxPoint x="815" y="460" />
              <mxPoint x="815" y="460" />
            </Array>
          </mxGeometry>
        </mxCell>
        <mxCell id="iT-QjhbkleCrby-z9CVg-19" value="Datos mediciones usuario" style="rounded=1;whiteSpace=wrap;html=1;" parent="1" vertex="1">
          <mxGeometry x="780" y="375.25" width="90" height="40" as="geometry" />
        </mxCell>
      </root>
    </mxGraphModel>
  </diagram>
</mxfile>
